<?xml version="1.0" encoding="utf-8"?>
<!-- Generator: Adobe Illustrator 22.1.0, SVG Export Plug-In . SVG Version: 6.00 Build 0)  -->
<svg version="1.1" xmlns="http://www.w3.org/2000/svg" xmlns:xlink="http://www.w3.org/1999/xlink" x="0px" y="0px"
	 viewBox="0 0 101.2 140.8" style="enable-background:new 0 0 101.2 140.8;" xml:space="preserve">
<style type="text/css">
	.st0{fill:#EE5253;stroke:#C0392B;}
	.st1{fill:#FF9F43;}
	.st2{fill:#FECA57;}
	.st3{fill:#3A3C3B;}
</style>
<g id="svg3455" inkscape:version="0.91 r13725" sodipodi:docname="Map Pin.svg" xmlns:cc="http://creativecommons.org/ns#" xmlns:dc="http://purl.org/dc/elements/1.1/" xmlns:inkscape="http://www.inkscape.org/namespaces/inkscape" xmlns:rdf="http://www.w3.org/1999/02/22-rdf-syntax-ns#" xmlns:sodipodi="http://sodipodi.sourceforge.net/DTD/sodipodi-0.dtd" xmlns:svg="http://www.w3.org/2000/svg">
	
		<sodipodi:namedview  bordercolor="#666666" borderopacity="1.0" fit-margin-bottom="0" fit-margin-left="0" fit-margin-right="0" fit-margin-top="0" id="base" inkscape:current-layer="layer1" inkscape:cx="8.4346812" inkscape:cy="14.715224" inkscape:document-units="px" inkscape:pageopacity="0.0" inkscape:pageshadow="2" inkscape:window-height="705" inkscape:window-maximized="1" inkscape:window-width="1024" inkscape:window-x="-4" inkscape:window-y="-4" inkscape:zoom="12.181359" pagecolor="#ffffff" showgrid="false">
		</sodipodi:namedview>
	<g id="layer1" transform="translate(-814.59595,-274.38623)" inkscape:groupmode="layer" inkscape:label="Layer 1">
		<g id="g3477" transform="matrix(1.1855854,0,0,1.1855854,-151.17715,-57.3976)">
			<path id="path4337-3" inkscape:connector-curvature="0" sodipodi:nodetypes="sscccccsscs" class="st0" d="M827.3,296.4
				c-6.4,6.8-10.4,16.7-10.2,26.1c0,1.4-0.1,5.2,1.4,11.4c4.1,17.3,78.8,8.6,79.1-10.9c0.2-9.3-3.9-19.3-10.2-26.1
				c-7.3-7.8-18.3-13.5-30-13.8C845.6,282.8,834.6,288.6,827.3,296.4L827.3,296.4z"/>
		</g>
	</g>
	<circle id="path3049_1_" class="st1" cx="50.7" cy="53.2" r="35.6"/>
	<path class="st0" d="M3,53.5c0,0.9,0.3,8.4,2.2,16.1s15.2,47.7,15.6,47.9c0.6,0.3,4.2-4.2,8.3-8.9c1.5-1.6,5-4.5,7.5-5.5
		c6.2-2.2,14.6,34.6,16.3,34.6c7.4-0.3,14.3-48.8,19-43.3c2.8,3.2,6.4,27.4,8.7,26.6c1.8-0.7,16.4-57.7,16.4-57.7s1.2-5.8,1.2-12.2"
		/>
	<path class="st1" d="M23.8,99.3c2.8,2.1,10.8-15.6,14.9-14.5s9.6,22.6,13.7,22.6s11.9-28.1,17-28.1s7.1,12,10.2,11.6
		c3.1-0.3,7.2-36.1,6.5-40c0,0-70.9-1-71.1,1.1C14.7,57.2,21,97.3,23.8,99.3z"/>
	<path id="path3049_2_" class="st2" d="M50.1,29c12.1,0,22,10.9,22,24.3s-44,13.4-44,0S38,29,50.1,29z"/>
	<path class="st2" d="M30.2,75.1c1.8,1.3,7.4-4,10-3.3s9.3,12,11.8,12s10.2-17.2,13.4-17.2s5.9,5.7,7.8,5.5c1.9-0.2-1-19.7-1.4-22.2
		l-43.7,2.5C28.1,52.4,28.5,73.8,30.2,75.1z"/>
</g>
<g id="Layer_3">
</g>
<g id="Layer_2">
	<circle id="path3049_4_" class="st3" cx="50.3" cy="49.8" r="12.5"/>
</g>
</svg>
